# xmcd CD database file
#
# Track frame offsets:
#	150
#	17997
#	50246
#	69868
#	102145
#	112956
#	130770
#	148720
#	160468
#	181929
#
# Disc length: 2862 seconds
#
# Revision: 0
# Processed by: cddbd v1.5.2PL0 Copyright (c) Steve Scherf et al.
# Submitted via: CDex 1.51
#
DISCID=880b2c0a
DTITLE=Sam Apple Pie - Sam Apple Pie
DYEAR=1970
DGENRE=Blues
TTITLE0=Hawk
TTITLE1=Winter Of My Love
TTITLE2=Stranger
TTITLE3=Swan Song
TTITLE4=Tiger Man
TTITLE5=Something Nation
TTITLE6=Sometime Girl
TTITLE7=Uncle Sam`s Blues
TTITLE8=Annabelle
TTITLE9=Moonlight Man
EXTD=YEAR: 1970
EXTT0=
EXTT1=
EXTT2=
EXTT3=
EXTT4=
EXTT5=
EXTT6=
EXTT7=
EXTT8=
EXTT9=
PLAYORDER=
